<mxfile host="app.diagrams.net" agent="Mozilla/5.0 (Windows NT 10.0; Win64; x64) AppleWebKit/537.36 (KHTML, like Gecko) Chrome/140.0.0.0 Safari/537.36 Edg/140.0.0.0" version="28.2.4">
  <diagram id="DiagramaER" name="Fase1 - Biblioteca">
    <mxGraphModel dx="667" dy="368" grid="1" gridSize="10" guides="1" tooltips="1" connect="1" arrows="1" fold="1" page="1" pageScale="1" pageWidth="827" pageHeight="1169" math="0" shadow="0">
      <root>
        <mxCell id="0" />
        <mxCell id="1" parent="0" />
        <mxCell id="2" value="Autor (ID, Nombre, Nacionalidad)" style="shape=rectangle;whiteSpace=wrap;rounded=1;fillColor=#dae8fc;strokeColor=#6c8ebf;" parent="1" vertex="1">
          <mxGeometry x="60" y="60" width="200" height="80" as="geometry" />
        </mxCell>
        <mxCell id="3" value="Libro (ID Libro, Título, ISBN, Año, ID Autor)" style="shape=rectangle;whiteSpace=wrap;rounded=1;fillColor=#d5e8d4;strokeColor=#82b366;" parent="1" vertex="1">
          <mxGeometry x="360" y="60" width="250" height="100" as="geometry" />
        </mxCell>
        <mxCell id="4" value="Estudiante (ID Estudiante, Nombre, Grado)" style="shape=rectangle;whiteSpace=wrap;rounded=1;fillColor=#ffe6cc;strokeColor=#d79b00;" parent="1" vertex="1">
          <mxGeometry x="60" y="260" width="220" height="80" as="geometry" />
        </mxCell>
        <mxCell id="5" value="Préstamo (ID_Prestamo, Fecha préstamo, Fecha devolución, ID Libro, ID Estudiante)" style="shape=rectangle;whiteSpace=wrap;rounded=1;fillColor=#f8cecc;strokeColor=#b85450;" parent="1" vertex="1">
          <mxGeometry x="360" y="260" width="300" height="120" as="geometry" />
        </mxCell>
        <mxCell id="6" style="edgeStyle=orthogonalEdgeStyle;rounded=0;orthogonalLoop=1;jettySize=auto;html=1;" parent="1" source="2" target="3" edge="1">
          <mxGeometry relative="1" as="geometry" />
        </mxCell>
        <mxCell id="7" value="1 : N" style="edgeLabel;resizable=0;align=center;verticalAlign=middle;" parent="6" vertex="1" connectable="0">
          <mxGeometry x="0.5" y="-1" relative="1" as="geometry" />
        </mxCell>
        <mxCell id="8" style="edgeStyle=orthogonalEdgeStyle;rounded=0;orthogonalLoop=1;jettySize=auto;html=1;" parent="1" source="3" target="5" edge="1">
          <mxGeometry relative="1" as="geometry" />
        </mxCell>
        <mxCell id="9" value="1 : N" style="edgeLabel;resizable=0;align=center;verticalAlign=middle;" parent="8" vertex="1" connectable="0">
          <mxGeometry x="0.5" y="-1" relative="1" as="geometry" />
        </mxCell>
        <mxCell id="10" style="edgeStyle=orthogonalEdgeStyle;rounded=0;orthogonalLoop=1;jettySize=auto;html=1;" parent="1" source="4" target="5" edge="1">
          <mxGeometry relative="1" as="geometry" />
        </mxCell>
        <mxCell id="11" value="1 : N" style="edgeLabel;resizable=0;align=center;verticalAlign=middle;" parent="10" vertex="1" connectable="0">
          <mxGeometry x="0.5" y="-1" relative="1" as="geometry" />
        </mxCell>
      </root>
    </mxGraphModel>
  </diagram>
</mxfile>
